HIERARCHY
ROOT root
{
	OFFSET 0.000000 0.000000 0.000000
	CHANNELS 6 Xposition Yposition Zposition Zrotation Yrotation Xrotation
	JOINT lhip
	{
		OFFSET 0.058581 -0.082280 -0.017664
		CHANNELS 3 Zrotation Yrotation Xrotation
		JOINT lknee
		{
			OFFSET 0.043451 -0.386469 0.008037
			CHANNELS 3 Zrotation Yrotation Xrotation
			JOINT lankle
			{
				OFFSET -0.014790 -0.426874 -0.037428
				CHANNELS 3 Zrotation Yrotation Xrotation
				JOINT ltoe
				{
					OFFSET 0.041054 -0.060286 0.122042
					CHANNELS 3 Zrotation Yrotation Xrotation
					End Site
					{
						OFFSET 0.000000 0.000000 0.000000
					}
				}
			}
		}
	}
	JOINT rhip
	{
		OFFSET -0.060310 -0.090513 -0.013543
		CHANNELS 3 Zrotation Yrotation Xrotation
		JOINT rknee
		{
			OFFSET -0.043257 -0.383688 -0.004843
			CHANNELS 3 Zrotation Yrotation Xrotation
			JOINT rankle
			{
				OFFSET 0.019056 -0.420046 -0.034562
				CHANNELS 3 Zrotation Yrotation Xrotation
				JOINT rtoe
				{
					OFFSET -0.034840 -0.062106 0.130323
					CHANNELS 3 Zrotation Yrotation Xrotation
					End Site
					{
						OFFSET 0.000000 0.000000 0.000000
					}
				}
			}
		}
	}
	JOINT lowerback
	{
		OFFSET 0.004439 0.124404 -0.038385
		CHANNELS 3 Zrotation Yrotation Xrotation
		JOINT upperback
		{
			OFFSET 0.004488 0.137956 0.026820
			CHANNELS 3 Zrotation Yrotation Xrotation
			JOINT chest
			{
				OFFSET -0.002265 0.056032 0.002855
				CHANNELS 3 Zrotation Yrotation Xrotation
				JOINT lowerneck
				{
					OFFSET -0.013390 0.211636 -0.033468
					CHANNELS 3 Zrotation Yrotation Xrotation
					JOINT upperneck
					{
						OFFSET 0.010113 0.088937 0.050410
						CHANNELS 3 Zrotation Yrotation Xrotation
						End Site
						{
							OFFSET 0.000000 0.000000 0.000000
						}
					}
				}
				JOINT lclavicle
				{
					OFFSET 0.071702 0.114000 -0.018898
					CHANNELS 3 Zrotation Yrotation Xrotation
					JOINT lshoulder
					{
						OFFSET 0.122921 0.045205 -0.019046
						CHANNELS 3 Zrotation Yrotation Xrotation
						JOINT lelbow
						{
							OFFSET 0.255332 -0.015649 -0.022946
							CHANNELS 3 Zrotation Yrotation Xrotation
							JOINT lwrist
							{
								OFFSET 0.265709 0.012698 -0.007375
								CHANNELS 3 Zrotation Yrotation Xrotation
								End Site
								{
									OFFSET 0.000000 0.000000 0.000000
								}
							}
						}
					}
				}
				JOINT rclavicle
				{
					OFFSET -0.082954 0.112472 -0.023707
					CHANNELS 3 Zrotation Yrotation Xrotation
					JOINT rshoulder
					{
						OFFSET -0.113228 0.046853 -0.008472
						CHANNELS 3 Zrotation Yrotation Xrotation
						JOINT relbow
						{
							OFFSET -0.260127 -0.014369 -0.031269
							CHANNELS 3 Zrotation Yrotation Xrotation
							JOINT rwrist
							{
								OFFSET -0.269108 0.006794 -0.006027
								CHANNELS 3 Zrotation Yrotation Xrotation
								End Site
								{
									OFFSET 0.000000 0.000000 0.000000
								}
							}
						}
					}
				}
			}
		}
	}
}
MOTION
Frames: 5
Frame Time: 0.033333
1.582498 1.144271 0.962454 -9.184594 0.678780 96.950644 10.572871 -1.802514 -13.105572 -2.215809 -5.593949 7.422194 5.419762 8.426945 -23.789805 0.000000 -0.000000 0.000000 -8.706884 1.202649 -19.841797 4.280039 10.366084 24.514409 3.633252 -3.061721 -17.117642 0.000000 -0.000000 0.000000 3.365754 3.880631 2.338557 -5.148321 6.072220 0.046188 -4.573369 4.453080 -1.459484 1.262177 1.908375 -18.865249 2.299375 -2.145514 6.607657 -33.552812 -0.834855 4.969822 -53.654229 -0.023250 2.998537 22.505773 -24.533915 -19.030872 22.005058 -6.362521 -13.042393 31.220316 15.223451 12.345476 56.412254 17.240819 15.371465 -9.599178 50.563873 -1.359035 -4.436771 15.486241 -20.817792 
1.565076 1.148590 0.964715 -9.457803 0.867868 96.437380 11.342468 -0.743477 -11.650456 -1.266264 -5.636500 6.062341 4.678987 7.505224 -23.134087 0.000000 -0.000000 0.000000 -7.117004 2.184772 -20.018235 3.821338 9.589839 25.780416 2.655884 -2.743548 -17.655716 0.000000 -0.000000 0.000000 4.725528 2.854100 2.597555 -5.044250 5.607420 0.477281 -5.465932 4.467982 -2.647454 1.096847 4.773255 -16.622384 1.990375 -3.861295 6.880335 -34.112201 -3.101442 5.991160 -50.932874 -0.938160 5.516343 20.099558 -31.877778 -6.194693 16.439639 -11.979839 -7.842644 32.207968 14.285839 14.078255 57.793969 15.946814 10.518515 -15.283464 40.461212 -8.385273 -14.160449 12.938794 -22.307718 
1.547809 1.152309 0.968383 -9.737390 1.405823 95.754966 12.389755 0.145052 -10.237947 -0.331733 -5.438379 5.154356 4.363842 6.811624 -22.728670 0.000000 -0.000000 0.000000 -5.275871 3.401608 -19.308840 3.600516 9.102545 25.738813 1.446188 -3.006534 -18.118899 0.000000 -0.000000 0.000000 5.975106 1.455403 2.832658 -4.659064 5.073226 0.762686 -5.684567 4.389791 -3.551059 0.665681 6.408569 -14.460128 1.717370 -3.436485 7.024202 -33.741902 -3.988384 5.404720 -48.873825 -2.171575 7.082865 16.740396 -39.534187 4.980513 10.771681 -16.278317 -0.222861 31.461567 13.604247 14.570884 58.880560 14.121056 6.496254 -18.840870 30.373932 -15.105371 -18.730682 10.473892 -22.909946 
1.532313 1.154987 0.972351 -9.873278 1.986404 95.061549 13.389279 0.409679 -9.014113 0.490763 -5.310204 4.539375 4.341035 7.159992 -22.100147 0.000000 -0.000000 0.000000 -3.662826 4.238016 -17.790070 3.758183 8.955411 24.224955 0.479238 -3.653998 -17.925467 0.000000 -0.000000 0.000000 7.077458 -0.194105 2.981874 -4.227691 4.361099 0.601481 -5.386948 4.044052 -3.851629 0.150583 6.760722 -12.615274 1.836828 -1.089422 7.366183 -33.378411 -3.905193 4.161034 -47.899180 -4.209602 8.230276 13.739835 -46.273325 11.212237 8.789630 -17.993841 3.096581 29.860038 12.621152 14.040134 57.449911 11.848448 3.164513 -17.823196 21.700594 -18.890605 -20.611494 8.127187 -23.764201 
1.518717 1.157392 0.976344 -9.849419 2.654321 94.609341 14.327915 0.332302 -8.578376 1.053126 -4.550251 4.910535 4.319477 8.537948 -21.330101 0.000000 -0.000000 0.000000 -2.257120 4.919723 -15.960798 4.173201 9.119670 21.596673 0.069791 -4.670504 -16.817286 0.000000 -0.000000 0.000000 8.034987 -1.829170 3.017190 -3.639333 3.436550 0.068197 -4.842850 3.294507 -3.796951 -0.125866 6.485705 -11.323009 2.226352 2.066952 8.264290 -33.755788 -3.639624 3.424463 -47.484909 -6.422959 8.930277 13.339291 -51.309312 12.575668 7.333234 -18.345200 2.909193 28.546412 10.906083 13.164110 52.912964 8.761270 0.370684 -14.067088 16.020742 -19.010841 -19.808602 7.303624 -24.364716 
